<svg xmlns="http://www.w3.org/2000/svg" xmlns:xlink="http://www.w3.org/1999/xlink" version="1.1" x="0px" y="0px" viewBox="0 0 100 125" style="enable-background:new 0 0 100 100;" xml:space="preserve"><path d="M89,88h-1.2895508V44.6323242c0-0.4472656-0.296875-0.840332-0.7275391-0.9624023l-5.984375-1.6947021V22.6987305  c0-0.5522461-0.4477539-1-1-1H69.8520508v-8.3662109c0-0.5522461-0.4477539-1-1-1s-1,0.4477539-1,1v8.3662109h-9.4443359V11  c0-0.5522461-0.4477539-1-1-1H33.1669922c-0.5522461,0-1,0.4477539-1,1v18.3911133H19.6108398c-0.5522461,0-1,0.4477539-1,1  v22.7151489l-5.6269531,1.7926636c-0.4145508,0.1318359-0.6962891,0.5170898-0.6962891,0.9526367V88H11  c-0.5522461,0-1,0.4477539-1,1s0.4477539,1,1,1h78c0.5522461,0,1-0.4477539,1-1S89.5522461,88,89,88z M85.7104492,88H63.972168  V43.5268555c0-0.5522461-0.4477539-1-1-1h-4.5644531v-4.8699951l27.3027344,7.7318115V88z M61.972168,44.5268555V88H41.9658203  V44.5268555H61.972168z M78.9985352,23.6987305v17.710083l-20.5908203-5.8310547V23.6987305H78.9985352z M56.4077148,12v30.5268555  H40.9658203c-0.5522461,0-1,0.4477539-1,1V88h-3.3168945V48.7275391c0-0.3193359-0.1523438-0.6191406-0.409668-0.8071289  c-0.2587891-0.1884766-0.5893555-0.2412109-0.894043-0.1455078l-1.1782227,0.3753662V12H56.4077148z M20.6108398,31.3911133  h11.5561523v17.3963013l-11.5561523,3.6816406V31.3911133z M14.2875977,56.5825195l20.3613281-6.4868164V88H14.2875977V56.5825195z"/><path d="M19.6108398,60.7666016c-0.5522461,0-1,0.4477539-1,1v5.3642578c0,0.5522461,0.4477539,1,1,1s1-0.4477539,1-1v-5.3642578  C20.6108398,61.2143555,20.1630859,60.7666016,19.6108398,60.7666016z"/><path d="M24.4682617,60.7666016c-0.5522461,0-1,0.4477539-1,1v5.3642578c0,0.5522461,0.4477539,1,1,1s1-0.4477539,1-1v-5.3642578  C25.4682617,61.2143555,25.0205078,60.7666016,24.4682617,60.7666016z"/><path d="M29.3256836,60.7666016c-0.5522461,0-1,0.4477539-1,1v5.3642578c0,0.5522461,0.4477539,1,1,1s1-0.4477539,1-1v-5.3642578  C30.3256836,61.2143555,29.8779297,60.7666016,29.3256836,60.7666016z"/><path d="M47.0522461,62.9594727c0.5522461,0,1-0.4477539,1-1v-2.5678711c0-0.5522461-0.4477539-1-1-1s-1,0.4477539-1,1v2.5678711  C46.0522461,62.5117188,46.5,62.9594727,47.0522461,62.9594727z"/><path d="M51.909668,62.9594727c0.5522461,0,1-0.4477539,1-1v-2.5678711c0-0.5522461-0.4477539-1-1-1s-1,0.4477539-1,1v2.5678711  C50.909668,62.5117188,51.3574219,62.9594727,51.909668,62.9594727z"/><path d="M56.7670898,62.9594727c0.5522461,0,1-0.4477539,1-1v-2.5678711c0-0.5522461-0.4477539-1-1-1s-1,0.4477539-1,1v2.5678711  C55.7670898,62.5117188,56.2148438,62.9594727,56.7670898,62.9594727z"/><path d="M47.0522461,70.2163086c0.5522461,0,1-0.4477539,1-1v-2.5678711c0-0.5522461-0.4477539-1-1-1s-1,0.4477539-1,1v2.5678711  C46.0522461,69.7685547,46.5,70.2163086,47.0522461,70.2163086z"/><path d="M51.909668,70.2163086c0.5522461,0,1-0.4477539,1-1v-2.5678711c0-0.5522461-0.4477539-1-1-1s-1,0.4477539-1,1v2.5678711  C50.909668,69.7685547,51.3574219,70.2163086,51.909668,70.2163086z"/><path d="M56.7670898,70.2163086c0.5522461,0,1-0.4477539,1-1v-2.5678711c0-0.5522461-0.4477539-1-1-1s-1,0.4477539-1,1v2.5678711  C55.7670898,69.7685547,56.2148438,70.2163086,56.7670898,70.2163086z"/><path d="M24.4682617,35.7949219c-0.5522461,0-1,0.4477539-1,1v4.3662109c0,0.5522461,0.4477539,1,1,1s1-0.4477539,1-1v-4.3662109  C25.4682617,36.2426758,25.0205078,35.7949219,24.4682617,35.7949219z"/><path d="M28.7143555,35.7949219c-0.5522461,0-1,0.4477539-1,1v4.3662109c0,0.5522461,0.4477539,1,1,1s1-0.4477539,1-1v-4.3662109  C29.7143555,36.2426758,29.2666016,35.7949219,28.7143555,35.7949219z"/><path d="M47.0522461,55.7026367c0.5522461,0,1-0.4477539,1-1v-2.5678711c0-0.5522461-0.4477539-1-1-1s-1,0.4477539-1,1v2.5678711  C46.0522461,55.2548828,46.5,55.7026367,47.0522461,55.7026367z"/><path d="M51.909668,55.7026367c0.5522461,0,1-0.4477539,1-1v-2.5678711c0-0.5522461-0.4477539-1-1-1s-1,0.4477539-1,1v2.5678711  C50.909668,55.2548828,51.3574219,55.7026367,51.909668,55.7026367z"/><path d="M56.7670898,55.7026367c0.5522461,0,1-0.4477539,1-1v-2.5678711c0-0.5522461-0.4477539-1-1-1s-1,0.4477539-1,1v2.5678711  C55.7670898,55.2548828,56.2148438,55.7026367,56.7670898,55.7026367z"/><path d="M40.355957,31.5761719c0.5522461,0,1-0.4477539,1-1v-2.5678711c0-0.5522461-0.4477539-1-1-1s-1,0.4477539-1,1v2.5678711  C39.355957,31.128418,39.8037109,31.5761719,40.355957,31.5761719z"/><path d="M45.2138672,31.5761719c0.5522461,0,1-0.4477539,1-1v-2.5678711c0-0.5522461-0.4477539-1-1-1s-1,0.4477539-1,1v2.5678711  C44.2138672,31.128418,44.6616211,31.5761719,45.2138672,31.5761719z"/><path d="M50.0712891,31.5761719c0.5522461,0,1-0.4477539,1-1v-2.5678711c0-0.5522461-0.4477539-1-1-1s-1,0.4477539-1,1v2.5678711  C49.0712891,31.128418,49.519043,31.5761719,50.0712891,31.5761719z"/><path d="M63.9946289,31.5761719c0.5522461,0,1-0.4477539,1-1v-2.5678711c0-0.5522461-0.4477539-1-1-1s-1,0.4477539-1,1v2.5678711  C62.9946289,31.128418,63.4423828,31.5761719,63.9946289,31.5761719z"/><path d="M68.8520508,31.5761719c0.5522461,0,1-0.4477539,1-1v-2.5678711c0-0.5522461-0.4477539-1-1-1s-1,0.4477539-1,1v2.5678711  C67.8520508,31.128418,68.2998047,31.5761719,68.8520508,31.5761719z"/><path d="M73.7094727,31.5761719c0.5522461,0,1-0.4477539,1-1v-2.5678711c0-0.5522461-0.4477539-1-1-1s-1,0.4477539-1,1v2.5678711  C72.7094727,31.128418,73.1572266,31.5761719,73.7094727,31.5761719z"/><path d="M40.355957,38.8330078c0.5522461,0,1-0.4477539,1-1v-2.5678711c0-0.5522461-0.4477539-1-1-1s-1,0.4477539-1,1v2.5678711  C39.355957,38.3852539,39.8037109,38.8330078,40.355957,38.8330078z"/><path d="M45.2138672,38.8330078c0.5522461,0,1-0.4477539,1-1v-2.5678711c0-0.5522461-0.4477539-1-1-1s-1,0.4477539-1,1v2.5678711  C44.2138672,38.3852539,44.6616211,38.8330078,45.2138672,38.8330078z"/><path d="M50.0712891,38.8330078c0.5522461,0,1-0.4477539,1-1v-2.5678711c0-0.5522461-0.4477539-1-1-1s-1,0.4477539-1,1v2.5678711  C49.0712891,38.3852539,49.519043,38.8330078,50.0712891,38.8330078z"/><path d="M40.355957,24.3193359c0.5522461,0,1-0.4477539,1-1v-2.5678711c0-0.5522461-0.4477539-1-1-1s-1,0.4477539-1,1v2.5678711  C39.355957,23.871582,39.8037109,24.3193359,40.355957,24.3193359z"/><path d="M45.2138672,24.3193359c0.5522461,0,1-0.4477539,1-1v-2.5678711c0-0.5522461-0.4477539-1-1-1s-1,0.4477539-1,1v2.5678711  C44.2138672,23.871582,44.6616211,24.3193359,45.2138672,24.3193359z"/><path d="M50.0712891,24.3193359c0.5522461,0,1-0.4477539,1-1v-2.5678711c0-0.5522461-0.4477539-1-1-1s-1,0.4477539-1,1v2.5678711  C49.0712891,23.871582,49.519043,24.3193359,50.0712891,24.3193359z"/><path d="M47.0522461,77.4731445c0.5522461,0,1-0.4477539,1-1v-2.5678711c0-0.5522461-0.4477539-1-1-1s-1,0.4477539-1,1v2.5678711  C46.0522461,77.0253906,46.5,77.4731445,47.0522461,77.4731445z"/><path d="M51.909668,77.4731445c0.5522461,0,1-0.4477539,1-1v-2.5678711c0-0.5522461-0.4477539-1-1-1s-1,0.4477539-1,1v2.5678711  C50.909668,77.0253906,51.3574219,77.4731445,51.909668,77.4731445z"/><path d="M56.7670898,77.4731445c0.5522461,0,1-0.4477539,1-1v-2.5678711c0-0.5522461-0.4477539-1-1-1s-1,0.4477539-1,1v2.5678711  C55.7670898,77.0253906,56.2148438,77.4731445,56.7670898,77.4731445z"/><path d="M47.0522461,84.7299805c0.5522461,0,1-0.4477539,1-1v-2.5678711c0-0.5522461-0.4477539-1-1-1s-1,0.4477539-1,1v2.5678711  C46.0522461,84.2822266,46.5,84.7299805,47.0522461,84.7299805z"/><path d="M51.909668,84.7299805c0.5522461,0,1-0.4477539,1-1v-2.5678711c0-0.5522461-0.4477539-1-1-1s-1,0.4477539-1,1v2.5678711  C50.909668,84.2822266,51.3574219,84.7299805,51.909668,84.7299805z"/><path d="M56.7670898,84.7299805c0.5522461,0,1-0.4477539,1-1v-2.5678711c0-0.5522461-0.4477539-1-1-1s-1,0.4477539-1,1v2.5678711  C55.7670898,84.2822266,56.2148438,84.7299805,56.7670898,84.7299805z"/><path d="M19.6108398,80.1621094c-0.5522461,0-1,0.4477539-1,1v2.5678711c0,0.5522461,0.4477539,1,1,1s1-0.4477539,1-1v-2.5678711  C20.6108398,80.6098633,20.1630859,80.1621094,19.6108398,80.1621094z"/><path d="M24.4682617,80.1621094c-0.5522461,0-1,0.4477539-1,1v2.5678711c0,0.5522461,0.4477539,1,1,1s1-0.4477539,1-1v-2.5678711  C25.4682617,80.6098633,25.0205078,80.1621094,24.4682617,80.1621094z"/><path d="M29.3256836,80.1621094c-0.5522461,0-1,0.4477539-1,1v2.5678711c0,0.5522461,0.4477539,1,1,1s1-0.4477539,1-1v-2.5678711  C30.3256836,80.6098633,29.8779297,80.1621094,29.3256836,80.1621094z"/><path d="M70.2836914,84.7299805c0.5522461,0,1-0.4477539,1-1v-2.5678711c0-0.5522461-0.4477539-1-1-1s-1,0.4477539-1,1v2.5678711  C69.2836914,84.2822266,69.7314453,84.7299805,70.2836914,84.7299805z"/><path d="M75.1411133,84.7299805c0.5522461,0,1-0.4477539,1-1v-2.5678711c0-0.5522461-0.4477539-1-1-1s-1,0.4477539-1,1v2.5678711  C74.1411133,84.2822266,74.5888672,84.7299805,75.1411133,84.7299805z"/><path d="M79.9985352,84.7299805c0.5522461,0,1-0.4477539,1-1v-2.5678711c0-0.5522461-0.4477539-1-1-1s-1,0.4477539-1,1v2.5678711  C78.9985352,84.2822266,79.4462891,84.7299805,79.9985352,84.7299805z"/><path d="M70.2836914,68.1308594c0.5522461,0,1-0.4477539,1-1v-5.3642578c0-0.5522461-0.4477539-1-1-1s-1,0.4477539-1,1v5.3642578  C69.2836914,67.6831055,69.7314453,68.1308594,70.2836914,68.1308594z"/><path d="M75.1411133,68.1308594c0.5522461,0,1-0.4477539,1-1v-5.3642578c0-0.5522461-0.4477539-1-1-1s-1,0.4477539-1,1v5.3642578  C74.1411133,67.6831055,74.5888672,68.1308594,75.1411133,68.1308594z"/><path d="M79.9985352,68.1308594c0.5522461,0,1-0.4477539,1-1v-5.3642578c0-0.5522461-0.4477539-1-1-1s-1,0.4477539-1,1v5.3642578  C78.9985352,67.6831055,79.4462891,68.1308594,79.9985352,68.1308594z"/><path d="M70.2836914,58.3852539c0.5522461,0,1-0.4477539,1-1v-5.3647461c0-0.5522461-0.4477539-1-1-1s-1,0.4477539-1,1v5.3647461  C69.2836914,57.9375,69.7314453,58.3852539,70.2836914,58.3852539z"/><path d="M75.1411133,58.3852539c0.5522461,0,1-0.4477539,1-1v-5.3647461c0-0.5522461-0.4477539-1-1-1s-1,0.4477539-1,1v5.3647461  C74.1411133,57.9375,74.5888672,58.3852539,75.1411133,58.3852539z"/><path d="M79.9985352,58.3852539c0.5522461,0,1-0.4477539,1-1v-5.3647461c0-0.5522461-0.4477539-1-1-1s-1,0.4477539-1,1v5.3647461  C78.9985352,57.9375,79.4462891,58.3852539,79.9985352,58.3852539z"/><path d="M19.6108398,70.4501953c-0.5522461,0-1,0.4477539-1,1v5.0229492c0,0.5522461,0.4477539,1,1,1s1-0.4477539,1-1v-5.0229492  C20.6108398,70.8979492,20.1630859,70.4501953,19.6108398,70.4501953z"/><path d="M24.4682617,70.4501953c-0.5522461,0-1,0.4477539-1,1v5.0229492c0,0.5522461,0.4477539,1,1,1s1-0.4477539,1-1v-5.0229492  C25.4682617,70.8979492,25.0205078,70.4501953,24.4682617,70.4501953z"/><path d="M29.3256836,70.4501953c-0.5522461,0-1,0.4477539-1,1v5.0229492c0,0.5522461,0.4477539,1,1,1s1-0.4477539,1-1v-5.0229492  C30.3256836,70.8979492,29.8779297,70.4501953,29.3256836,70.4501953z"/><path d="M70.2836914,77.4731445c0.5522461,0,1-0.4477539,1-1v-5.0229492c0-0.5522461-0.4477539-1-1-1s-1,0.4477539-1,1v5.0229492  C69.2836914,77.0253906,69.7314453,77.4731445,70.2836914,77.4731445z"/><path d="M75.1411133,77.4731445c0.5522461,0,1-0.4477539,1-1v-5.0229492c0-0.5522461-0.4477539-1-1-1s-1,0.4477539-1,1v5.0229492  C74.1411133,77.0253906,74.5888672,77.4731445,75.1411133,77.4731445z"/><path d="M79.9985352,77.4731445c0.5522461,0,1-0.4477539,1-1v-5.0229492c0-0.5522461-0.4477539-1-1-1s-1,0.4477539-1,1v5.0229492  C78.9985352,77.0253906,79.4462891,77.4731445,79.9985352,77.4731445z"/></svg>