<svg xmlns="http://www.w3.org/2000/svg" xmlns:xlink="http://www.w3.org/1999/xlink" version="1.1" x="0px" y="0px" viewBox="0 0 100 125" enable-background="new 0 0 100 100" xml:space="preserve"><g><path d="M92.821,58.421l-41.79-44.915c-0.012-0.012-0.023-0.022-0.035-0.033c-0.013-0.014-0.023-0.026-0.037-0.039   c-0.005-0.004-0.011-0.008-0.016-0.014c-0.019-0.017-0.038-0.032-0.059-0.048c-0.017-0.015-0.034-0.028-0.052-0.042   c-0.02-0.014-0.04-0.027-0.061-0.041c-0.02-0.013-0.038-0.025-0.058-0.037s-0.039-0.021-0.06-0.031   c-0.021-0.012-0.042-0.023-0.063-0.033c-0.02-0.009-0.039-0.016-0.058-0.023c-0.023-0.01-0.047-0.02-0.071-0.028   c-0.018-0.007-0.036-0.012-0.055-0.017c-0.025-0.008-0.051-0.016-0.076-0.021c-0.018-0.005-0.036-0.008-0.055-0.012   c-0.025-0.006-0.052-0.01-0.078-0.014c-0.019-0.004-0.037-0.005-0.056-0.006c-0.026-0.004-0.053-0.006-0.078-0.008   c-0.02,0-0.039,0-0.059,0c-0.025,0-0.051,0-0.076,0c-0.021,0.002-0.04,0.004-0.061,0.006c-0.024,0.002-0.049,0.004-0.073,0.008   c-0.021,0.004-0.041,0.008-0.062,0.012c-0.023,0.004-0.047,0.008-0.07,0.014c-0.021,0.006-0.041,0.012-0.062,0.018   c-0.022,0.008-0.046,0.014-0.068,0.021c-0.021,0.008-0.04,0.016-0.06,0.023c-0.022,0.01-0.046,0.018-0.068,0.029   c-0.019,0.008-0.037,0.018-0.055,0.027c-0.023,0.012-0.046,0.023-0.068,0.037c-0.018,0.01-0.034,0.021-0.051,0.033   c-0.022,0.014-0.045,0.028-0.066,0.045c-0.017,0.012-0.033,0.025-0.049,0.039c-0.021,0.016-0.041,0.032-0.061,0.05   c-0.005,0.005-0.011,0.009-0.016,0.013c-0.013,0.013-0.024,0.025-0.036,0.038c-0.012,0.012-0.024,0.022-0.035,0.034L7.179,58.421   c-0.529,0.569-0.497,1.46,0.072,1.989c0.271,0.253,0.615,0.377,0.958,0.377c0.378,0,0.754-0.15,1.031-0.448l7.197-7.735v32.93   c0,0.778,0.631,1.408,1.408,1.408h9.127h19.535h35.646c0.778,0,1.408-0.63,1.408-1.408v-32.93l7.197,7.735   c0.277,0.298,0.653,0.448,1.031,0.448c0.344,0,0.688-0.124,0.959-0.377C93.319,59.881,93.351,58.99,92.821,58.421z M28.381,84.126   V54.158H45.1v29.968H28.381z M80.747,84.126H47.916V52.75c0-0.777-0.631-1.408-1.408-1.408H26.973   c-0.777,0-1.407,0.631-1.407,1.408v31.376h-6.312V49.577L50,16.531l30.747,33.046V84.126z"/><path d="M54.226,68.893h19.061c0.777,0,1.408-0.631,1.408-1.408V53.47c0-0.778-0.631-1.408-1.408-1.408H54.226   c-0.777,0-1.408,0.63-1.408,1.408v14.015C52.817,68.262,53.448,68.893,54.226,68.893z M55.634,61.885h6.714v4.191h-6.714V61.885z    M65.164,66.076v-4.191h6.714v4.191H65.164z M71.878,59.068h-6.714v-4.191h6.714V59.068z M62.348,54.877v4.191h-6.714v-4.191   H62.348z"/></g></svg>